<?xml version="1.0" encoding="utf-8"?>
<!-- Generator: Adobe Illustrator 23.0.3, SVG Export Plug-In . SVG Version: 6.00 Build 0)  -->
<svg version="1.1" id="Laag_1" xmlns="http://www.w3.org/2000/svg" xmlns:xlink="http://www.w3.org/1999/xlink" x="0px" y="0px"
	 viewBox="0 0 52.9 100" style="enable-background:new 0 0 52.9 100;" xml:space="preserve">
<style type="text/css">
	.st0{fill:#1A1919;}
</style>
<title>Forward</title>
<path class="st0" d="M0.9,99.2c0.5,0.5,1.2,0.8,2,0.8c0.8,0,1.5-0.3,2-0.8L52.1,52c1.1-1.1,1.1-2.9,0-4c0,0,0,0,0,0L4.9,0.8
	C3.8-0.3,2-0.4,0.9,0.7s-1.2,2.9-0.1,4c0,0,0.1,0.1,0.1,0.1L46.1,50L0.9,95.2C-0.2,96.3-0.2,98,0.9,99.2C0.9,99.2,0.9,99.2,0.9,99.2
	z"/>
</svg>
