<?xml version="1.0" encoding="utf-8"?>
<!-- Generator: Adobe Illustrator 23.0.3, SVG Export Plug-In . SVG Version: 6.00 Build 0)  -->
<svg version="1.1" id="Laag_1" xmlns="http://www.w3.org/2000/svg" xmlns:xlink="http://www.w3.org/1999/xlink" x="0px" y="0px"
	 viewBox="0 0 52.9 100" style="enable-background:new 0 0 52.9 100;" xml:space="preserve">
<style type="text/css">
	.st0{fill:#FFFFFF;}
</style>
<title>Forward</title>
<path class="st0" d="M52,99.2c-0.5,0.5-1.2,0.8-2,0.8c-0.8,0-1.5-0.3-2-0.8L0.8,52c-1.1-1.1-1.1-2.9,0-4c0,0,0,0,0,0L48,0.8
	c1.1-1.1,2.9-1.2,4-0.1s1.2,2.9,0.1,4c0,0-0.1,0.1-0.1,0.1L6.8,50L52,95.2C53.1,96.3,53.1,98,52,99.2C52,99.2,52,99.2,52,99.2z"/>
</svg>
